<?xml version="1.0" encoding="utf-8"?>
<!DOCTYPE svg PUBLIC "-//W3C//DTD SVG 1.0//EN" "http://www.w3.org/TR/2001/REC-SVG-20010904/DTD/svg10.dtd">
<svg version="1.0" xmlns="http://www.w3.org/2000/svg" width="1000px" height="500px" viewBox="0 0 1000 500" preserveAspectRatio="xMidYMid meet">
 <g fill="#000000">
  <path d="M757 424.8 c0.1 -3.3 20.6 -42.2 22.4 -42.6 1 -0.2 1.6 0.3 1.6 1.4 0 1.5 -19.1 39.4 -21.3 42.2 -1.5 1.9 -2.7 1.4 -2.7 -1z"/>
  <path d="M339.8 415.5 c-0.2 -0.2 -1.7 -0.5 -3.4 -0.8 -6.7 -1 -11.4 -5.1 -14.3 -12.5 -1.3 -3.2 -1.1 -18 0.4 -24.2 0.3 -1.4 1 -4.7 1.5 -7.4 0.6 -2.8 1.7 -6 2.5 -7.3 0.9 -1.3 1.3 -2.3 1 -2.3 -0.5 0 3.1 -7.3 5.8 -11.5 0.6 -1.1 2.9 -4.1 4.9 -6.6 3.3 -4 3.7 -5.1 3.1 -8 -0.3 -1.9 -0.9 -3.6 -1.3 -3.9 -0.3 -0.3 -1.4 -5.2 -2.4 -11 -0.9 -5.8 -2 -11.3 -2.3 -12.4 -0.4 -1.4 1.2 -3.5 6.2 -8.2 3.7 -3.5 7.5 -6.4 8.4 -6.4 1 0 2.1 -0.4 2.7 -0.9 0.5 -0.5 2.5 -1.1 4.5 -1.5 3.1 -0.5 4.2 -0.2 6.8 2 1.7 1.4 3.1 3.4 3.1 4.4 0 1 0.4 2.1 0.9 2.4 0.5 0.4 1.2 2.8 1.6 5.4 1 7.3 1.5 7.7 6.6 5.4 2.5 -1.1 5.8 -2.4 7.4 -2.8 1.7 -0.4 3.5 -1 4 -1.4 0.6 -0.5 3.5 -1.1 6.6 -1.5 3.1 -0.4 6.1 -1 6.6 -1.3 1.1 -0.7 4.2 -6.4 8.3 -15.4 1.2 -2.6 3.1 -5 4.1 -5.3 1 -0.4 1.9 -1.1 1.9 -1.6 0 -0.6 0.8 -0.8 1.8 -0.5 0.9 0.3 4.4 0.8 7.7 1.1 11.6 1.3 14 2 15.9 5 1.8 2.8 1.4 8.5 -1.3 17.1 -1.6 5.2 -1.6 6.6 -0.6 9.1 0.7 1.7 1.8 3.4 2.4 3.7 0.6 0.4 1.1 1.6 1.1 2.7 0 1 0.4 1.9 0.8 1.9 0.4 0 1.4 2.1 2.1 4.8 0.7 2.6 2 6.6 2.7 9 1.6 4.8 1.3 18.8 -0.5 23.4 -1.3 3.6 0 4.9 6.7 6.8 4.8 1.2 5.2 1.6 5.4 4.4 0.6 12.4 -4.4 19.7 -13.9 20.2 -4 0.2 -5.2 0.8 -8.3 4.1 -8.4 9.2 -15.3 12.5 -29.5 13.9 -4.2 0.4 -6.5 0.3 -6.9 -0.5 -0.4 -0.6 -1.5 -1.1 -2.5 -1.1 -1 0 -2.5 -0.7 -3.2 -1.6 -0.7 -0.9 -2.3 -2 -3.6 -2.5 -4.8 -1.8 -3.6 -12.9 2.3 -21.6 3.4 -5.1 17.2 -18.2 22.3 -21.3 4.1 -2.5 4.2 -2.6 3.5 -7 -0.3 -2.5 -0.9 -4.8 -1.3 -5.3 -0.4 -0.4 -3.5 2.3 -6.9 6 -3.4 3.8 -7.3 7.9 -8.7 9.3 -1.4 1.4 -2.5 2.8 -2.5 3.2 0 0.3 -1.4 2.1 -3.1 4 -5.4 5.9 -6.2 6.7 -7.8 9.1 -7.7 11.5 -7.2 10.4 -6.7 17.4 0.4 5.7 0.2 7 -1.9 10.2 -2.5 3.9 -4.5 5.7 -9.4 8.4 -4.6 2.4 -6.8 2.1 -10.3 -1.3 l-3 -3.1 -4.2 2 c-3.8 1.8 -13.1 4.2 -13.8 3.6z m30.5 -6.6 c2.9 -1.5 7.4 -6.4 8.2 -8.8 0.3 -1.1 0.2 -3.7 -0.4 -5.7 -1.2 -4.2 -0.6 -6 4.4 -12.9 1.9 -2.7 4.3 -6.1 5.3 -7.5 1.6 -2.4 8.7 -11.5 13.4 -17.2 1.3 -1.5 3.4 -4.1 4.8 -5.8 6 -7.3 14.3 -15.1 15.1 -14.3 1.2 1.2 2.9 10.5 2.9 15.8 0 2.7 -0.6 4.7 -1.7 5.8 -5.6 5.2 -8.5 7.8 -11.9 10.3 -2.1 1.6 -5 4.2 -6.4 5.7 -1.4 1.6 -3.3 3.6 -4.3 4.5 -1.8 1.7 -4.5 7.1 -5.2 10.5 -0.2 1 -0.7 2.7 -1 3.7 -0.9 2.8 3.4 6.7 9 8.2 5 1.4 12.4 0.9 17 -1.1 1.1 -0.5 3.8 -1.7 5.9 -2.6 3.8 -1.7 7 -4.5 10.5 -9.3 1.4 -1.9 2.8 -2.5 7.5 -2.8 4.1 -0.3 6.3 -0.9 7.2 -2.1 1.8 -2.3 3.4 -8 3.4 -11.9 0 -2.7 -0.4 -3.1 -2.7 -3.2 -9.1 -0.5 -10.6 -1.4 -9.8 -5.5 1 -5.8 1.7 -11.2 1.8 -14.2 0.2 -4.8 -1.4 -15.5 -2.4 -16.1 -0.5 -0.3 -0.9 -1.3 -0.9 -2.2 -0.1 -0.9 -1 -3.3 -2 -5.2 -6.1 -11.1 -7.2 -14.2 -6.1 -16.3 2.1 -4.2 3.9 -9.8 4.3 -13.6 0 -0.3 -0.3 -1.6 -0.7 -2.8 -0.9 -2.7 -4.5 -4.1 -11 -4.3 -2.7 0 -5.9 -0.2 -6.9 -0.3 -1.4 -0.1 -3.2 2.2 -7.5 10 -5.4 9.8 -5.7 10.1 -9.6 10.7 -8.3 1.4 -15.3 3.7 -26.5 8.9 -8.7 4.1 -8.6 4.2 -10.6 -6.5 -1.8 -9.3 -4 -13.8 -6.9 -13.8 -2.7 0 -7.4 1.9 -9.8 4 -5.3 4.5 -5.6 5.1 -5.2 10.8 0.2 3 0.8 5.8 1.3 6.1 0.5 0.3 1.3 3 1.7 6 0.4 3 1.3 6.8 2 8.5 1.1 2.6 1.1 3.5 -0.5 6.6 -1 2 -2.6 4.2 -3.4 4.9 -0.9 0.8 -1.6 2.1 -1.6 3.1 0 1 -0.7 2.3 -1.5 3 -2 1.7 -7.3 11.3 -8.9 16.3 -3.1 9.6 -3.5 11.8 -3.6 22.7 -0.1 10.9 2.2 16.2 7.6 18 5.3 1.8 14.2 1.4 19.9 -0.7 l5.1 -2 2.6 2.9 c2.8 3 4.7 3.4 8.1 1.7z"/>
  <path d="M344.4 394.6 c-3 -1.3 -3.6 -2.3 -5.4 -9.3 -1.6 -6.5 4.3 -17.3 11.6 -21.1 2.9 -1.5 4.2 0.1 5 6.2 0.4 2.5 1.1 4.6 1.5 4.6 0.5 0 0.9 0.7 0.9 1.5 0 2.4 2.4 9.5 3.2 9.5 1.9 0 0.6 3.1 -1.9 4.7 -1.6 1 -3 2 -3.3 2.4 -0.5 0.6 -6.9 2.9 -7.9 2.9 -0.3 -0.1 -2 -0.7 -3.7 -1.4z m9.9 -9.7 c-0.1 -1.7 -0.6 -3.4 -1.1 -3.8 -0.5 -0.3 -1.3 -2.5 -1.7 -4.8 -0.4 -2.4 -1 -4.3 -1.3 -4.3 -0.4 0.1 -1.9 1.9 -3.4 4.1 -3.4 4.8 -3.7 10 -0.8 12.9 1.8 1.8 2.2 1.8 5.2 0.5 2.8 -1.2 3.3 -1.8 3.1 -4.6z"/>
  <path d="M409.9 389.1 l-2.1 -1.7 2.3 -3.5 c4.2 -6.3 13.3 -10.5 15.9 -7.4 0.9 1.1 0.8 2.1 -0.8 4.7 -4.8 7.8 -11.4 11.1 -15.3 7.9z m9.5 -4.3 c4.5 -3 4.6 -4.8 0.2 -4.8 -4 0 -8.8 4.6 -6.4 6.2 1.9 1.1 2.3 1 6.2 -1.4z"/>
  <path d="M374.1 364.1 c-1.5 -2.1 -2.2 -5 -2.6 -11.2 l-0.6 -8.3 4.8 -4.3 c2.6 -2.3 5.3 -4.3 6 -4.3 0.6 0 1.8 -0.6 2.5 -1.3 4.5 -4.3 10.7 -6 14.3 -4 1.9 1.1 1.8 1.3 -1 7 -1.6 3.2 -5.1 9 -7.8 12.8 -2.6 3.9 -5.7 8.4 -6.8 10.2 -1.1 1.7 -3.1 3.8 -4.4 4.7 -2.3 1.5 -2.5 1.4 -4.4 -1.3z m8.3 -8.5 c2 -2.4 3.6 -5.1 3.6 -5.9 0 -0.7 0.9 -2.2 2 -3.2 1 -0.9 1.9 -2 1.8 -2.4 -0.1 -0.3 0.4 -1.9 1 -3.4 0.7 -1.6 1.2 -3 1.2 -3.3 0 -0.9 -3.9 -0.3 -5.2 0.9 -0.7 0.6 -3.4 2.3 -6 3.6 -3.4 1.8 -4.7 3.2 -5 5 -0.5 3.4 1.1 13.1 2.2 13.1 0.4 0 2.4 -2 4.4 -4.4z"/>
  <path d="M788.7 398.3 c-2.3 -2.3 0.1 -3 13.1 -4.1 22.7 -1.9 39.9 -6.7 58.7 -16.2 26.4 -13.3 46.2 -30.9 62.2 -55.2 38.4 -58.4 33.9 -134.6 -11.3 -188.9 -15.8 -19 -39.3 -36 -61.9 -44.8 -32.1 -12.6 -61.6 -15 -94.5 -7.7 -54.1 12.1 -98.7 52.6 -115.9 105.3 -5.6 17.1 -8.6 37.7 -7.6 51.3 0.3 4.1 0.7 10.9 0.9 15 0.9 16.1 6.4 35.1 16.1 54.5 20.5 41.3 59.3 72.1 104.3 83 4.5 1.1 7.2 2.2 7.2 3 0 2.5 -1.6 2.5 -10.6 0 -13.3 -3.5 -17.9 -5.2 -29.4 -10.6 -45.4 -21.5 -79.1 -64.2 -88.9 -112.6 -3.6 -18.3 -4.2 -23.8 -13 -140.8 -7.5 -99.4 -8.7 -117.2 -7.5 -118.5 1 -1.1 1.7 -1.1 2.5 -0.3 0.9 0.9 13.2 152.5 16 195.8 0.1 1.1 0.5 0 1.1 -2.5 10.4 -48.7 41.5 -89.9 84.8 -112.4 26.9 -13.9 59.2 -20.5 87.8 -17.8 51.8 5 94.8 30.3 122.5 72.2 15.9 24.1 24.1 48.2 26.8 78.8 4.2 48.5 -16.7 99.9 -54.1 132.8 -19.7 17.5 -44.1 30.2 -70.5 36.8 -12.1 3 -37.2 5.6 -38.8 3.9z"/>
  <path d="M525.8 387.5 c-0.2 -0.2 -2.8 -0.6 -5.8 -0.9 -14.1 -1.5 -28.3 -6.6 -29.3 -10.6 -1.2 -4.6 0.4 -9.6 5.6 -17.7 2.8 -4.4 7.1 -6.2 12 -5 1.2 0.3 4.9 1.3 8.2 2.1 8.7 2.3 15.6 3.1 34.7 4.1 10.7 0.5 15.4 1.3 16.8 2.9 2.3 2.9 0.5 16.1 -2.9 20.6 -1.1 1.5 -3.3 2.8 -5.7 3.2 -3.9 0.8 -33 1.9 -33.6 1.3z m31.9 -6.4 c2.2 -0.2 4.2 -4.5 4.8 -10.2 l0.5 -5.6 -14.2 0.1 c-15.4 0.1 -20.7 -0.4 -30.8 -2.9 -3.6 -0.9 -7.4 -1.8 -8.5 -2 -1.1 -0.2 -2.9 -0.7 -4 -1 -2.6 -0.7 -7.1 5.6 -7.3 10.5 -0.2 3.7 1.6 5.6 6.2 6.7 5.4 1.2 15.4 3.3 18 3.8 1.6 0.2 3 0.6 3.3 0.8 0.3 0.3 27.7 0.1 32 -0.2z"/>
  <path d="M544.7 353.2 c-0.8 -0.9 -2.1 -3.5 -2.8 -5.7 -0.7 -2.2 -1.7 -4.4 -2.1 -4.9 -0.4 -0.6 -0.8 -1.8 -0.8 -2.8 0 -2.4 -1.4 -2.3 -9.6 0.8 -25.6 9.5 -27.2 9.4 -31.2 -1.8 -1.9 -5.5 -1.9 -5.7 -0.1 -9.7 1 -2.3 2.3 -4.1 2.9 -4.1 0.5 0 3.3 -1.1 6.2 -2.5 2.8 -1.4 6 -2.5 7 -2.5 1 0 1.8 -0.4 1.8 -1 0 -0.5 0.7 -1 1.5 -1 1.8 0 8.9 -3.2 9.3 -4.2 0.2 -0.5 1.2 -0.8 2.2 -0.8 2.2 0 3.3 -3.6 1.8 -6.4 -1.5 -2.9 -1.4 -2.9 -3.5 -1.7 -1 0.5 -5.6 2.4 -10.3 4.1 -8.6 3.2 -14.2 5.5 -17.1 7 -1.8 0.9 -4.6 -0.5 -7 -3.4 -2.4 -2.9 -4.4 -16.2 -2.9 -19 0.6 -1.1 3.5 -3.2 6.5 -4.6 3 -1.4 5.5 -2.8 5.5 -3.2 0 -0.5 0.5 -0.8 1.1 -0.8 1.1 0 17.8 -7.7 18.8 -8.6 0.2 -0.2 -0.6 -2.4 -1.8 -4.8 -2.2 -4.2 -2.2 -4.5 -0.6 -7.6 0.9 -1.8 3.1 -3.8 5 -4.6 1.8 -0.7 3.6 -1.8 4 -2.4 0.3 -0.5 1.7 -1 3.1 -1 1.3 0 2.4 -0.4 2.4 -0.8 0 -0.4 2.7 -1.4 6 -2 7.5 -1.6 10.1 -0.2 12.6 6.9 1.7 4.6 3.5 6.1 4.9 3.9 0.3 -0.5 1.7 -1 3.1 -1 1.3 0 2.4 -0.4 2.4 -1 0 -0.5 0.8 -1 1.8 -1 1 0 2.7 -0.7 3.8 -1.5 1 -0.8 2.7 -1.5 3.6 -1.5 0.9 0 1.8 -0.4 2 -0.8 0.5 -1.5 7.2 -2.1 8.9 -0.9 2.3 1.7 4.7 7.4 5.8 13.7 0.7 4.5 0.6 6 -0.7 8.2 -0.9 1.6 -2.2 2.8 -2.9 2.8 -0.7 0 -2.1 0.4 -3.1 1 -4.7 2.6 -18.8 9 -19.8 9 -0.7 0 -1.4 0.7 -1.8 1.5 -0.3 0.8 -0.1 1.5 0.4 1.5 0.6 0 1 0.6 1 1.4 0 3.5 2.7 3.1 13.5 -2 14.6 -6.8 19.8 -4.5 23.5 10.2 1.2 4.6 1.1 5.4 -0.6 7.8 -1 1.4 -3.1 2.9 -4.6 3.2 -1.6 0.4 -2.8 1 -2.8 1.5 0 0.5 -0.9 0.9 -1.9 0.9 -1.1 0 -2.2 0.4 -2.6 0.9 -0.3 0.5 -1.9 1.2 -3.5 1.6 -1.7 0.4 -3 1.1 -3 1.6 0 0.5 -0.7 0.9 -1.5 0.9 -0.8 0 -3 0.7 -4.9 1.7 -2.9 1.4 -3.4 2 -3 4.2 2.6 13.9 2 16.1 -5.9 20.6 -9.4 5.4 -17.7 7.3 -20 4.7z m12.1 -6.7 c2.9 -1.4 5.6 -2.5 6.2 -2.5 0.5 0 1 -0.4 1 -1 0 -0.5 0.7 -1 1.5 -1 1.1 0 1.4 -0.7 1 -2.2 -0.9 -4.4 -2.3 -14.3 -2.2 -16.2 0 -1 0.9 -2.1 1.9 -2.4 1 -0.2 1.8 -0.8 1.8 -1.2 0 -0.4 1.2 -1.1 2.7 -1.5 1.5 -0.3 4.5 -1.5 6.7 -2.6 2.2 -1 4.8 -1.9 5.8 -1.9 1 0 1.8 -0.4 1.8 -1 0 -0.5 1.1 -1 2.5 -1 1.4 0 2.5 -0.4 2.5 -1 0 -0.5 0.9 -1 2 -1 1.7 0 1.9 -0.5 1.3 -3.2 -0.3 -1.8 -1 -3.4 -1.5 -3.6 -0.4 -0.2 -0.8 -1.4 -0.8 -2.8 0 -3.6 -4.6 -5.6 -9.4 -4.2 -2 0.6 -3.6 1.5 -3.6 2 0 0.4 -0.6 0.8 -1.4 0.8 -0.7 0 -3.9 1.1 -7 2.5 -3.1 1.4 -6.5 2.5 -7.5 2.5 -2.3 0 -5.1 -4.1 -5.1 -7.4 0 -1.4 -0.4 -2.8 -1 -3.1 -0.5 -0.3 -1 -1.2 -1 -2 0 -1.7 5 -6.5 6.6 -6.5 0.7 0 3.4 -1.1 6.1 -2.4 2.6 -1.3 7.1 -3.4 9.8 -4.7 l5 -2.4 -0.2 -5.5 c-0.4 -7.5 -1.9 -8.9 -7.5 -6.6 -2.4 1 -5.4 2.3 -6.8 2.8 -1.4 0.6 -3.3 1.4 -4.2 1.9 -1 0.5 -2.6 0.9 -3.6 0.9 -1 0 -2.2 0.4 -2.8 1 -0.5 0.5 -2.4 1.1 -4.2 1.2 -3.2 0.3 -3.4 0 -5.9 -5.7 -1.4 -3.3 -3 -6.3 -3.7 -6.7 -2 -1.4 -12.1 1.8 -15.3 4.9 -0.7 0.6 -1.8 1.3 -2.4 1.5 -0.8 0.3 -0.4 2.6 1.4 7.6 2 5.5 2.2 7.2 1.2 7.2 -0.7 0 -2.8 0.8 -4.7 1.7 -6 3 -6.8 3.3 -8.3 3.3 -0.8 0 -1.5 0.5 -1.5 1 0 0.6 -0.6 1 -1.4 1 -2.1 0 -13.8 5.1 -15.9 6.9 -1.4 1.2 -1.7 2.4 -1.2 5.6 1.1 7.3 2.4 9.5 5.6 9.5 1.6 0 2.9 -0.4 2.9 -1 0 -0.5 1.1 -1 2.5 -1 1.4 0 2.5 -0.4 2.5 -1 0 -0.5 0.7 -1 1.5 -1 1.3 0 9.8 -3.5 14.6 -6 0.9 -0.5 3.2 -1.2 5.1 -1.5 3.2 -0.6 3.4 -0.4 5.2 3.6 1 2.3 2.1 6.1 2.3 8.3 l0.5 4.2 -9.5 4.7 c-5.3 2.6 -10.1 4.7 -10.6 4.7 -0.6 0 -1.1 0.5 -1.1 1 0 0.6 -0.8 1 -1.8 1 -1 0 -2.7 0.7 -3.8 1.5 -1 0.8 -2.5 1.5 -3.2 1.5 -2.7 0 -4.2 2.7 -3.6 6.2 1.1 5.5 3 7 8.3 6.2 2.5 -0.3 5 -1 5.6 -1.5 0.5 -0.5 1.7 -0.9 2.7 -0.9 1 0 1.8 -0.4 1.8 -1 0 -0.5 0.6 -1 1.4 -1 0.8 0 4.5 -1.4 8.1 -3.1 8.6 -4 11.1 -3.5 12 2.3 1.2 7.8 3.5 13.8 5.4 13.8 0.9 0 4.1 -1.1 6.9 -2.5z"/>
  <path d="M861.1 341.9 c-3.8 -6.3 -6.7 -29.7 -8.1 -66.9 -0.5 -14.6 -1 -28.7 -1 -31.4 l0 -4.9 -5.2 0.7 c-2.9 0.4 -14 2.5 -24.7 4.7 -25.4 5.1 -30.4 5 -32.9 -0.6 -2.5 -5.4 1.6 -8.5 10.9 -8.5 2.6 0 15.2 -2 28 -4.5 12.8 -2.5 23.3 -4.5 23.5 -4.5 0.2 0 0.2 -12.9 0.1 -28.7 -0.2 -25.7 0 -29.5 1.7 -35.1 2.1 -7 5.2 -10.2 9.7 -10.2 4.3 0 4.9 2.2 3.3 12.4 -1 6.3 -1.4 16 -1.2 34.1 l0.3 25.3 21 -4.3 c36.1 -7.4 35.2 -7.1 38 -11.5 2.9 -4.6 5 -4.5 9.5 0.7 5.4 6.1 3.6 12.8 -4.2 15.7 -3.1 1.1 -60.3 11.6 -63.4 11.6 -1.4 0 0.8 61.6 2.7 76 0.6 4.7 2.2 12 3.6 16.3 1.3 4.3 2.3 8.8 2.1 10 -0.4 2.6 -6.2 6.7 -9.5 6.7 -1.5 0 -3 -1 -4.2 -3.1z"/>
  <path d="M698.9 342 c-12.1 -2.1 -22.5 -10.4 -27.1 -21.8 -1.9 -4.9 -2.2 -7.4 -2.2 -18.2 0.2 -26.6 10.9 -60.4 26.9 -84.4 4.2 -6.3 10.6 -11.2 16.3 -12.2 3.7 -0.7 7.9 0.8 8.8 3 0.3 0.8 -2.7 5.7 -6.9 11.3 -17.8 23.5 -28.2 48.2 -30.7 73.1 -1.6 15.9 -0.1 23 6 28.6 5.6 5 12.9 6.9 25 6.4 8.9 -0.3 10.4 -0.7 17.6 -4.2 10.9 -5.4 21.6 -16.1 27 -27 3.6 -7.4 3.9 -8.6 3.9 -16.5 0 -7 -0.4 -9.4 -2.3 -12.8 -3 -5.7 -10.9 -13.5 -23 -22.6 -10.2 -7.8 -15.2 -12.8 -15.2 -15.3 0 -2.2 3.5 -5.2 7.7 -6.3 7.2 -2 18.1 -1 14.3 1.4 -2.4 1.5 -0.2 4.5 12.4 16.9 11.4 11.1 14 14.2 16.7 20 6 12.9 5.1 24.7 -3.2 40.6 -14.7 28.3 -44.2 44.7 -72 40z"/>
  <path d="M149 297.9 c-0.8 -0.4 -4.9 -1.8 -9 -3 -4.1 -1.2 -9.7 -3.2 -12.5 -4.5 -2.7 -1.3 -6.1 -2.7 -7.5 -3.3 -4.9 -2 -16 -9.1 -20 -12.8 -3.3 -3 -11.7 -11.4 -13.4 -13.3 -3.1 -3.6 -4.5 -8.2 -4 -12.8 0.6 -4.9 5.3 -15.4 8.5 -18.8 1 -1.1 1.9 -2.5 1.9 -3 0 -0.6 1.1 -2.1 2.5 -3.4 1.4 -1.3 2.5 -2.7 2.5 -3.2 0 -0.8 8.3 -12.1 10.7 -14.6 0.7 -0.8 2.7 -3.5 4.4 -6 1.8 -2.6 3.7 -5.1 4.3 -5.7 0.6 -0.5 2.4 -2.8 4 -5 1.7 -2.2 3.3 -4.2 3.6 -4.5 0.3 -0.3 1.9 -2.2 3.4 -4.2 1.5 -2 6 -7.1 9.9 -11.1 6.8 -7 7.4 -7.4 10.7 -6.9 3.8 0.5 13.2 6.1 16.6 9.7 4.3 4.7 3.9 7.7 -2.3 16.8 -9.5 13.7 -14 20.1 -16.2 22.7 -3.2 3.9 -6.5 8.3 -8.1 10.6 -0.8 1.2 -3.7 5.4 -6.4 9.2 l-4.8 7.1 2.2 3.1 c1.2 1.6 2.5 3 2.9 3 0.5 0 3.8 2.4 7.4 5.3 8.4 6.6 10.9 8.4 17.5 12.5 8 4.8 14 10.2 14.5 12.9 0.5 2.6 -6.8 13.9 -12.9 20.1 -3.4 3.4 -7.7 4.7 -10.4 3.1z m9 -8.6 c4.7 -6.8 6.9 -10.8 7 -12.5 0 -1 -2.7 -3.5 -6.7 -6.1 -11 -7.1 -18.3 -12 -21.7 -14.5 -1.7 -1.2 -4.8 -3.3 -6.8 -4.7 -2.1 -1.4 -3.8 -2.9 -3.8 -3.4 0 -0.4 -1.1 -1.3 -2.5 -1.9 -4 -1.8 -4.1 -5.2 -0.3 -10.7 1.8 -2.6 4 -5.7 4.8 -6.9 2 -3 6.2 -9.1 10.1 -14.6 1.8 -2.5 5.5 -7.8 8.3 -11.8 2.8 -4.1 6 -8.6 7.1 -10.2 8.5 -11.9 8.5 -11.8 7.4 -14.9 -0.6 -1.6 -1.8 -3.2 -2.7 -3.5 -0.9 -0.3 -2.8 -1.4 -4.2 -2.5 -4.3 -3.4 -7.1 -3.5 -10.2 -0.4 -4.3 4.5 -12.8 14.8 -12.8 15.6 0 0.3 -1.2 1.9 -2.7 3.5 -1.6 1.6 -3.9 4.6 -5.3 6.6 -1.4 2.1 -3.6 5 -5 6.6 -1.4 1.6 -3.6 4.5 -5 6.5 -1.4 2 -3.4 4.7 -4.5 5.8 -1.1 1.2 -4.2 5.3 -6.8 9.2 -13.9 20 -14.7 22.6 -10.1 29.9 1.6 2.5 3.5 4.5 4.2 4.6 0.6 0 1.2 0.4 1.2 0.9 0 2.2 16.5 16.5 18 15.6 0.4 -0.2 1.5 0.4 2.5 1.5 1 1.1 2.2 2 2.7 2 0.5 0 4.9 2 9.6 4.4 22.6 11.4 24.2 11.7 28.2 5.9z"/>
  <path d="M300.5 266.7 c-5 -1.1 -18.8 -6.4 -23.8 -9.3 -2.1 -1.2 -4.8 -3.6 -5.8 -5.4 -2.2 -3.5 -3.4 -14.5 -2 -16.9 0.5 -0.7 0.6 -2.2 0.4 -3.2 -0.4 -1.4 -1.2 -1.7 -3.7 -1.3 -3.7 0.7 -12.4 3.3 -14.8 4.5 -1 0.5 -2.6 0.9 -3.6 0.9 -1 0 -2.2 0.4 -2.8 0.9 -0.5 0.5 -3.5 1.3 -6.6 1.8 -5.3 0.9 -6.1 0.8 -9.2 -1.3 -4.6 -3.1 -5.9 -10.1 -3 -15.1 3.6 -6.1 10.9 -14.6 24.7 -28.5 12.1 -12.3 15 -15.8 13.2 -15.8 -0.2 0 -2.2 0.6 -4.2 1.4 -2.1 0.8 -6.6 1.9 -10.1 2.5 -7.5 1.2 -9.8 0.3 -10.8 -4.4 -0.9 -4 -0.8 -17.7 0.1 -20.6 0.8 -2.6 4.3 -5.8 6.3 -5.9 1.7 0 11.2 -2.9 13.2 -3.9 0.9 -0.5 3.9 -1.2 6.8 -1.6 2.9 -0.4 5.2 -1 5.2 -1.5 0 -0.4 2.5 -1.1 5.6 -1.5 3 -0.3 7 -1.3 8.7 -2 1.8 -0.7 5.7 -1.6 8.7 -2 3 -0.4 6 -1.1 6.6 -1.6 0.6 -0.5 4.5 -1.4 8.7 -2.1 9.2 -1.4 15.2 -0.1 16.3 3.5 0.4 1.2 1.1 2.5 1.6 2.8 0.6 0.4 1 3.6 1 7.2 -0.1 6.8 -1.8 11 -5.2 12.2 -0.8 0.3 -3.7 2.6 -6.5 5.1 -2.7 2.5 -7.6 6.9 -10.8 9.7 -9.3 8.2 -11.7 10.6 -11.7 11.7 0 1.3 2.7 1.3 3.5 0 0.3 -0.5 1.7 -1 3 -1 1.3 0 2.6 -0.4 2.9 -0.9 0.3 -0.5 1.8 -1.1 3.3 -1.4 1.6 -0.3 5.3 -1.3 8.3 -2.2 10.2 -3.1 18.3 -4.4 20.5 -3.3 3.4 1.8 5.5 4 5.5 6 0 1 0.4 1.8 0.9 1.8 0.5 0 1.3 2.9 1.6 6.5 0.6 5.4 0.4 6.9 -0.9 8.4 -0.9 1 -1.6 2.2 -1.6 2.8 0 1.3 -7.5 6.3 -9.5 6.3 -0.8 0 -1.5 0.4 -1.5 0.8 0 0.4 -2.1 1.3 -4.7 2 -2.7 0.8 -5.6 1.8 -6.5 2.3 -1 0.5 -2.7 0.9 -3.7 0.9 -1.1 0 -2.9 0.9 -4 2.1 -2.3 2.5 -5.1 10.4 -4.4 12.8 0.4 1.4 5.3 5.2 7.3 5.7 0.3 0 2.1 0.8 4.1 1.7 1.9 0.8 4.8 1.9 6.5 2.3 1.6 0.4 4.1 1.5 5.6 2.6 2.4 1.7 2.6 2.2 1.7 4.6 -2.3 6.1 -5.3 11.4 -7 12.5 -1.1 0.7 -1.9 1.7 -1.9 2.4 0 3.5 -12.7 5.8 -21.5 4z m16.3 -8.4 c7.4 -7.2 7.9 -10.8 2 -12.4 -2.4 -0.6 -4.4 -1.1 -4.5 -1.1 -0.1 0 -3.1 -1 -6.5 -2.1 -4.3 -1.5 -6.6 -2.9 -7.3 -4.4 -0.5 -1.3 -1.3 -2.3 -1.7 -2.3 -1.3 0 0.2 -12.4 1.8 -14.7 0.8 -1.3 1.3 -2.3 1 -2.3 -1.5 0 5.6 -6 8.9 -7.4 2.2 -1 4.8 -2.2 5.7 -2.7 1 -0.5 2.7 -0.9 3.7 -0.9 1.1 0 2.3 -0.4 2.6 -1 0.3 -0.5 1.7 -1 3.1 -1 1.3 0 2.4 -0.4 2.4 -1 0 -0.5 0.8 -1 1.8 -1 0.9 0 2.8 -0.9 4.1 -1.9 2.1 -1.6 2.3 -2.4 1.8 -6.8 -0.3 -2.7 -1.1 -6.1 -1.7 -7.5 -1.2 -2.5 -1.6 -2.6 -7.4 -2.4 -3.3 0.2 -8.6 1.1 -11.6 2 -3 1 -6.7 2 -8.2 2.3 -1.6 0.3 -2.8 0.9 -2.8 1.4 0 0.5 -1.1 0.9 -2.4 0.9 -1.4 0 -2.8 0.5 -3.1 1 -0.3 0.6 -1.7 1 -3.1 1 -1.3 0 -2.4 0.5 -2.4 1 0 0.6 -1 1 -2.1 1 -1.2 0 -3.9 0.5 -6.1 1.2 -4.6 1.3 -6.2 0.3 -5.3 -3.4 0.7 -2.7 11.3 -14.1 19 -20.3 2.7 -2.2 5.9 -4.9 7 -6 1.2 -1.1 4.4 -3.6 7.1 -5.5 2.6 -1.9 5.6 -4.2 6.6 -5.2 2.1 -2.1 2.2 -6.7 0.5 -11.8 -1 -2.9 -1.7 -3.4 -3.7 -3.2 -7.3 0.9 -36.8 6.4 -38.5 7.1 -1.1 0.5 -4.5 1.4 -7.5 2 -3 0.6 -8.9 2.1 -13 3.2 -4.1 1.1 -8.7 2.3 -10.2 2.6 -3 0.6 -3 0.6 -3 11.8 0 8.3 -0.4 7.8 5.4 7.1 2.9 -0.4 5.7 -1.1 6.3 -1.6 0.5 -0.4 3 -1.1 5.5 -1.5 2.5 -0.4 5.1 -1.2 5.7 -1.7 1.8 -1.4 4.2 -0.3 5.2 2.4 1.4 3.5 -3.4 10.2 -16.1 22.9 -1.6 1.5 -2.8 2.9 -2.8 3.2 0 0.3 -2.5 3 -5.5 6 -3 3 -5.5 5.9 -5.5 6.5 0 0.7 -0.4 1.2 -0.9 1.2 -0.5 0 -2.8 2.3 -5.2 5.1 -3.2 3.9 -4.2 5.9 -4.1 8.1 0.3 4 2.8 6.5 5.1 5.1 0.9 -0.6 3.7 -1.4 6.1 -1.8 2.5 -0.4 5 -1.1 5.5 -1.5 0.6 -0.4 3.1 -1.1 5.7 -1.4 2.6 -0.4 5 -1.1 5.3 -1.7 0.4 -0.5 1.9 -0.9 3.5 -0.9 1.6 0 3.2 -0.4 3.5 -1 0.3 -0.5 1.5 -1 2.5 -1 1 0 2 -0.5 2.2 -1 0.2 -0.6 1.8 0 3.6 1.2 3.2 2.2 3.3 2.4 2.6 7.3 -2.6 18.4 -0.4 22.6 14.1 26.9 0.6 0.2 1.7 0.6 2.5 0.9 3 1.1 6.6 1.8 12 2.4 3 0.3 5.7 0.7 5.9 0.9 1 0.9 2.3 0.3 4.9 -2.3z"/>
 </g>
</svg>